<svg id="my-svg" width="100%" xmlns="http://www.w3.org/2000/svg" xmlns:xlink="http://www.w3.org/1999/xlink" class="classDiagram" style="max-width: 593.387px; background-color: transparent;" viewBox="0 0 593.38671875 1144" role="graphics-document document" aria-roledescription="class"><style>#my-svg{font-family:-apple-system,BlinkMacSystemFont,Helvetica,Arial,sans-serif;font-size:16px;fill:#333;}@keyframes edge-animation-frame{from{stroke-dashoffset:0;}}@keyframes dash{to{stroke-dashoffset:0;}}#my-svg .edge-animation-slow{stroke-dasharray:9,5!important;stroke-dashoffset:900;animation:dash 50s linear infinite;stroke-linecap:round;}#my-svg .edge-animation-fast{stroke-dasharray:9,5!important;stroke-dashoffset:900;animation:dash 20s linear infinite;stroke-linecap:round;}#my-svg .error-icon{fill:#552222;}#my-svg .error-text{fill:#552222;stroke:#552222;}#my-svg .edge-thickness-normal{stroke-width:1px;}#my-svg .edge-thickness-thick{stroke-width:3.5px;}#my-svg .edge-pattern-solid{stroke-dasharray:0;}#my-svg .edge-thickness-invisible{stroke-width:0;fill:none;}#my-svg .edge-pattern-dashed{stroke-dasharray:3;}#my-svg .edge-pattern-dotted{stroke-dasharray:2;}#my-svg .marker{fill:#333333;stroke:#333333;}#my-svg .marker.cross{stroke:#333333;}#my-svg svg{font-family:-apple-system,BlinkMacSystemFont,Helvetica,Arial,sans-serif;font-size:16px;}#my-svg p{margin:0;}#my-svg g.classGroup text{fill:#9370DB;stroke:none;font-family:-apple-system,BlinkMacSystemFont,Helvetica,Arial,sans-serif;font-size:10px;}#my-svg g.classGroup text .title{font-weight:bolder;}#my-svg .cluster-label text{fill:#333;}#my-svg .cluster-label span{color:#333;}#my-svg .cluster-label span p{background-color:transparent;}#my-svg .cluster rect{fill:#ffffde;stroke:#aaaa33;stroke-width:1px;}#my-svg .cluster text{fill:#333;}#my-svg .cluster span{color:#333;}#my-svg .nodeLabel,#my-svg .edgeLabel{color:#131300;}#my-svg .noteLabel .nodeLabel,#my-svg .noteLabel .edgeLabel{color:black;}#my-svg .edgeLabel .label rect{fill:#ECECFF;}#my-svg .label text{fill:#131300;}#my-svg .labelBkg{background:#ECECFF;}#my-svg .edgeLabel .label span{background:#ECECFF;}#my-svg .classTitle{font-weight:bolder;}#my-svg .node rect,#my-svg .node circle,#my-svg .node ellipse,#my-svg .node polygon,#my-svg .node path{fill:#ECECFF;stroke:#9370DB;stroke-width:1;}#my-svg .divider{stroke:#9370DB;stroke-width:1;}#my-svg g.clickable{cursor:pointer;}#my-svg g.classGroup rect{fill:#ECECFF;stroke:#9370DB;}#my-svg g.classGroup line{stroke:#9370DB;stroke-width:1;}#my-svg .classLabel .box{stroke:none;stroke-width:0;fill:#ECECFF;opacity:0.5;}#my-svg .classLabel .label{fill:#9370DB;font-size:10px;}#my-svg .relation{stroke:#333333;stroke-width:1;fill:none;}#my-svg .dashed-line{stroke-dasharray:3;}#my-svg .dotted-line{stroke-dasharray:1 2;}#my-svg [id$="-compositionStart"],#my-svg .composition{fill:#333333!important;stroke:#333333!important;stroke-width:1;}#my-svg [id$="-compositionEnd"],#my-svg .composition{fill:#333333!important;stroke:#333333!important;stroke-width:1;}#my-svg [id$="-dependencyStart"],#my-svg .dependency{fill:#333333!important;stroke:#333333!important;stroke-width:1;}#my-svg [id$="-dependencyEnd"],#my-svg .dependency{fill:#333333!important;stroke:#333333!important;stroke-width:1;}#my-svg [id$="-extensionStart"],#my-svg .extension{fill:transparent!important;stroke:#333333!important;stroke-width:1;}#my-svg [id$="-extensionEnd"],#my-svg .extension{fill:transparent!important;stroke:#333333!important;stroke-width:1;}#my-svg [id$="-aggregationStart"],#my-svg .aggregation{fill:transparent!important;stroke:#333333!important;stroke-width:1;}#my-svg [id$="-aggregationEnd"],#my-svg .aggregation{fill:transparent!important;stroke:#333333!important;stroke-width:1;}#my-svg [id$="-lollipopStart"],#my-svg .lollipop{fill:#ECECFF!important;stroke:#333333!important;stroke-width:1;}#my-svg [id$="-lollipopEnd"],#my-svg .lollipop{fill:#ECECFF!important;stroke:#333333!important;stroke-width:1;}#my-svg .edgeTerminals{font-size:11px;line-height:initial;}#my-svg .classTitleText{text-anchor:middle;font-size:18px;fill:#333;}#my-svg .edgeLabel[data-look="neo"]{background-color:rgba(232,232,232, 0.8);text-align:center;}#my-svg .edgeLabel[data-look="neo"] p{background-color:rgba(232,232,232, 0.8);}#my-svg .edgeLabel[data-look="neo"] rect{opacity:0.5;background-color:rgba(232,232,232, 0.8);fill:rgba(232,232,232, 0.8);}#my-svg .label-icon{display:inline-block;height:1em;overflow:visible;vertical-align:-0.125em;}#my-svg .node .label-icon path{fill:currentColor;stroke:revert;stroke-width:revert;}#my-svg .node .neo-node{stroke:#9370DB;}#my-svg [data-look="neo"].node rect,#my-svg [data-look="neo"].cluster rect,#my-svg [data-look="neo"].node polygon{stroke:#9370DB;filter:drop-shadow(1px 2px 2px rgba(185, 185, 185, 1));}#my-svg [data-look="neo"].node path{stroke:#9370DB;stroke-width:1px;}#my-svg [data-look="neo"].node .outer-path{filter:drop-shadow(1px 2px 2px rgba(185, 185, 185, 1));}#my-svg [data-look="neo"].node .neo-line path{stroke:#9370DB;filter:none;}#my-svg [data-look="neo"].node circle{stroke:#9370DB;filter:drop-shadow(1px 2px 2px rgba(185, 185, 185, 1));}#my-svg [data-look="neo"].node circle .state-start{fill:#000000;}#my-svg [data-look="neo"].icon-shape .icon{fill:#9370DB;filter:drop-shadow(1px 2px 2px rgba(185, 185, 185, 1));}#my-svg [data-look="neo"].icon-shape .icon-neo path{stroke:#9370DB;filter:drop-shadow(1px 2px 2px rgba(185, 185, 185, 1));}#my-svg :root{--mermaid-font-family:"trebuchet ms",verdana,arial,sans-serif;}</style><g><defs><marker id="my-svg_class-aggregationStart" class="marker aggregation class" refX="18" refY="7" markerWidth="190" markerHeight="240" orient="auto"><path d="M 18,7 L9,13 L1,7 L9,1 Z"/></marker></defs><defs><marker id="my-svg_class-aggregationEnd" class="marker aggregation class" refX="1" refY="7" markerWidth="20" markerHeight="28" orient="auto"><path d="M 18,7 L9,13 L1,7 L9,1 Z"/></marker></defs><defs><marker id="my-svg_class-aggregationStart-margin" class="marker aggregation class" refX="15" refY="7" markerWidth="190" markerHeight="240" orient="auto" markerUnits="userSpaceOnUse"><path d="M 18,7 L9,13 L1,7 L9,1 Z" style="stroke-width: 2;"/></marker></defs><defs><marker id="my-svg_class-aggregationEnd-margin" class="marker aggregation class" refX="1" refY="7" markerWidth="20" markerHeight="28" orient="auto" markerUnits="userSpaceOnUse"><path d="M 18,7 L9,13 L1,7 L9,1 Z" style="stroke-width: 2;"/></marker></defs><defs><marker id="my-svg_class-extensionStart" class="marker extension class" refX="18" refY="7" markerWidth="190" markerHeight="240" orient="auto" markerUnits="userSpaceOnUse"><path d="M 1,7 L18,13 V 1 Z"/></marker></defs><defs><marker id="my-svg_class-extensionEnd" class="marker extension class" refX="1" refY="7" markerWidth="20" markerHeight="28" orient="auto"><path d="M 1,1 V 13 L18,7 Z"/></marker></defs><marker id="my-svg_class-extensionStart-margin" class="marker extension class" refX="18" refY="7" markerWidth="20" markerHeight="28" orient="auto" markerUnits="userSpaceOnUse" viewBox="0 0 20 14"><polygon points="10,7 18,13 18,1" style="stroke-width: 2; stroke-dasharray: 0;"/></marker><defs><marker id="my-svg_class-extensionEnd-margin" class="marker extension class" refX="9" refY="7" markerWidth="20" markerHeight="28" orient="auto" markerUnits="userSpaceOnUse" viewBox="0 0 20 14"><polygon points="10,1 10,13 18,7" style="stroke-width: 2; stroke-dasharray: 0;"/></marker></defs><defs><marker id="my-svg_class-compositionStart" class="marker composition class" refX="18" refY="7" markerWidth="190" markerHeight="240" orient="auto"><path d="M 18,7 L9,13 L1,7 L9,1 Z"/></marker></defs><defs><marker id="my-svg_class-compositionEnd" class="marker composition class" refX="1" refY="7" markerWidth="20" markerHeight="28" orient="auto"><path d="M 18,7 L9,13 L1,7 L9,1 Z"/></marker></defs><defs><marker id="my-svg_class-compositionStart-margin" class="marker composition class" refX="15" refY="7" markerWidth="190" markerHeight="240" orient="auto" markerUnits="userSpaceOnUse"><path viewBox="0 0 15 15" d="M 18,7 L9,13 L1,7 L9,1 Z" style="stroke-width: 0;"/></marker></defs><defs><marker id="my-svg_class-compositionEnd-margin" class="marker composition class" refX="3.5" refY="7" markerWidth="20" markerHeight="28" orient="auto" markerUnits="userSpaceOnUse"><path d="M 18,7 L9,13 L1,7 L9,1 Z" style="stroke-width: 0;"/></marker></defs><defs><marker id="my-svg_class-dependencyStart" class="marker dependency class" refX="6" refY="7" markerWidth="190" markerHeight="240" orient="auto"><path d="M 5,7 L9,13 L1,7 L9,1 Z"/></marker></defs><defs><marker id="my-svg_class-dependencyEnd" class="marker dependency class" refX="13" refY="7" markerWidth="20" markerHeight="28" orient="auto"><path d="M 18,7 L9,13 L14,7 L9,1 Z"/></marker></defs><defs><marker id="my-svg_class-dependencyStart-margin" class="marker dependency class" refX="4" refY="7" markerWidth="190" markerHeight="240" orient="auto" markerUnits="userSpaceOnUse"><path d="M 5,7 L9,13 L1,7 L9,1 Z" style="stroke-width: 0;"/></marker></defs><defs><marker id="my-svg_class-dependencyEnd-margin" class="marker dependency class" refX="16" refY="7" markerWidth="20" markerHeight="28" orient="auto" markerUnits="userSpaceOnUse"><path d="M 18,7 L9,13 L14,7 L9,1 Z" style="stroke-width: 0;"/></marker></defs><defs><marker id="my-svg_class-lollipopStart" class="marker lollipop class" refX="13" refY="7" markerWidth="190" markerHeight="240" orient="auto"><circle fill="transparent" cx="7" cy="7" r="6"/></marker></defs><defs><marker id="my-svg_class-lollipopEnd" class="marker lollipop class" refX="1" refY="7" markerWidth="190" markerHeight="240" orient="auto"><circle fill="transparent" cx="7" cy="7" r="6"/></marker></defs><defs><marker id="my-svg_class-lollipopStart-margin" class="marker lollipop class" refX="13" refY="7" markerWidth="190" markerHeight="240" orient="auto" markerUnits="userSpaceOnUse"><circle fill="transparent" cx="7" cy="7" r="6" stroke-width="2"/></marker></defs><defs><marker id="my-svg_class-lollipopEnd-margin" class="marker lollipop class" refX="1" refY="7" markerWidth="190" markerHeight="240" orient="auto" markerUnits="userSpaceOnUse"><circle fill="transparent" cx="7" cy="7" r="6" stroke-width="2"/></marker></defs><g class="root"><g class="clusters"/><g class="edgePaths"><path d="M138.301,247.25L138.301,249.375C138.301,251.5,138.301,255.75,138.301,268.875C138.301,282,138.301,304,138.301,315L138.301,326" id="my-svg-id_Runnable_Pregel_1" class="edge-thickness-normal edge-pattern-dashed relation" style=";;;" data-edge="true" data-et="edge" data-id="id_Runnable_Pregel_1" data-points="W3sieCI6MTM4LjMwMDc4MTI1LCJ5IjoyMzB9LHsieCI6MTM4LjMwMDc4MTI1LCJ5IjoyNjB9LHsieCI6MTM4LjMwMDc4MTI1LCJ5IjozMjZ9XQ==" data-look="classic" marker-start="url(#my-svg_class-extensionStart)"/><path d="M438.191,571.25L438.191,573.375C438.191,575.5,438.191,579.75,438.191,586.875C438.191,594,438.191,604,438.191,609L438.191,614" id="my-svg-id_Graph_StateGraph_2" class="edge-thickness-normal edge-pattern-solid relation" style=";;;" data-edge="true" data-et="edge" data-id="id_Graph_StateGraph_2" data-points="W3sieCI6NDM4LjE5MTQwNjI1LCJ5Ijo1NTR9LHsieCI6NDM4LjE5MTQwNjI1LCJ5Ijo1ODR9LHsieCI6NDM4LjE5MTQwNjI1LCJ5Ijo2MTR9XQ==" data-look="classic" marker-start="url(#my-svg_class-extensionStart)"/><path d="M460.563,871.025L461.243,875.187C461.922,879.35,463.281,887.675,463.961,906.337C464.641,925,464.641,954,464.641,968.5L464.641,983" id="my-svg-id_StateGraph_MessageGraph_3" class="edge-thickness-normal edge-pattern-solid relation" style=";;;" data-edge="true" data-et="edge" data-id="id_StateGraph_MessageGraph_3" data-points="W3sieCI6NDU3Ljc4MzQyMDEzODg4ODksInkiOjg1NH0seyJ4Ijo0NjQuNjQwNjI1LCJ5Ijo4OTZ9LHsieCI6NDY0LjY0MDYyNSwieSI6OTgzfV0=" data-look="classic" marker-start="url(#my-svg_class-extensionStart)"/><path d="M138.301,535.25L138.301,543.375C138.301,551.5,138.301,567.75,138.301,584.875C138.301,602,138.301,620,138.301,629L138.301,638" id="my-svg-id_Pregel_CompiledGraph_4" class="edge-thickness-normal edge-pattern-solid relation" style=";;;" data-edge="true" data-et="edge" data-id="id_Pregel_CompiledGraph_4" data-points="W3sieCI6MTM4LjMwMDc4MTI1LCJ5Ijo1MTh9LHsieCI6MTM4LjMwMDc4MTI1LCJ5Ijo1ODR9LHsieCI6MTM4LjMwMDc4MTI1LCJ5Ijo2Mzh9XQ==" data-look="classic" marker-start="url(#my-svg_class-extensionStart)"/><path d="M138.301,847.25L138.301,855.375C138.301,863.5,138.301,879.75,139.614,894.875C140.927,910,143.553,924,144.866,931L146.179,938" id="my-svg-id_CompiledGraph_CompiledStateGraph_5" class="edge-thickness-normal edge-pattern-solid relation" style=";;;" data-edge="true" data-et="edge" data-id="id_CompiledGraph_CompiledStateGraph_5" data-points="W3sieCI6MTM4LjMwMDc4MTI1LCJ5Ijo4MzB9LHsieCI6MTM4LjMwMDc4MTI1LCJ5Ijo4OTZ9LHsieCI6MTQ2LjE3OTI3MTk0MTQ4OTM2LCJ5Ijo5Mzh9XQ==" data-look="classic" marker-start="url(#my-svg_class-extensionStart)"/><path d="M343.013,854L337.461,861C331.909,868,320.805,882,308.774,895.303C296.742,908.605,283.784,921.211,277.304,927.514L270.825,933.816" id="my-svg-id_StateGraph_CompiledStateGraph_6" class="edge-thickness-normal edge-pattern-dashed relation" style=";;;" data-edge="true" data-et="edge" data-id="id_StateGraph_CompiledStateGraph_6" data-points="W3sieCI6MzQzLjAxMzQ1NDg2MTExMTEsInkiOjg1NH0seyJ4IjozMDkuNzAxMTcxODc1LCJ5Ijo4OTZ9LHsieCI6MjY2LjUyNDIyNzA2MTE3MDIsInkiOjkzOH1d" data-look="classic" marker-end="url(#my-svg_class-dependencyEnd)"/></g><g class="edgeLabels"><g class="edgeLabel"><g class="label" data-id="id_Runnable_Pregel_1" transform="translate(0, 0)"><foreignObject width="0" height="0"><div xmlns="http://www.w3.org/1999/xhtml" class="labelBkg" style="display: table-cell; white-space: nowrap; line-height: 1.5; max-width: 200px; text-align: center;"><span class="edgeLabel"></span></div></foreignObject></g></g><g class="edgeLabel"><g class="label" data-id="id_Graph_StateGraph_2" transform="translate(0, 0)"><foreignObject width="0" height="0"><div xmlns="http://www.w3.org/1999/xhtml" class="labelBkg" style="display: table-cell; white-space: nowrap; line-height: 1.5; max-width: 200px; text-align: center;"><span class="edgeLabel"></span></div></foreignObject></g></g><g class="edgeLabel"><g class="label" data-id="id_StateGraph_MessageGraph_3" transform="translate(0, 0)"><foreignObject width="0" height="0"><div xmlns="http://www.w3.org/1999/xhtml" class="labelBkg" style="display: table-cell; white-space: nowrap; line-height: 1.5; max-width: 200px; text-align: center;"><span class="edgeLabel"></span></div></foreignObject></g></g><g class="edgeLabel"><g class="label" data-id="id_Pregel_CompiledGraph_4" transform="translate(0, 0)"><foreignObject width="0" height="0"><div xmlns="http://www.w3.org/1999/xhtml" class="labelBkg" style="display: table-cell; white-space: nowrap; line-height: 1.5; max-width: 200px; text-align: center;"><span class="edgeLabel"></span></div></foreignObject></g></g><g class="edgeLabel"><g class="label" data-id="id_CompiledGraph_CompiledStateGraph_5" transform="translate(0, 0)"><foreignObject width="0" height="0"><div xmlns="http://www.w3.org/1999/xhtml" class="labelBkg" style="display: table-cell; white-space: nowrap; line-height: 1.5; max-width: 200px; text-align: center;"><span class="edgeLabel"></span></div></foreignObject></g></g><g class="edgeLabel" transform="translate(307.32568, 898.31074)"><g class="label" data-id="id_StateGraph_CompiledStateGraph_6" transform="translate(-32.8984375, -12)"><foreignObject width="65.796875" height="24"><div xmlns="http://www.w3.org/1999/xhtml" class="labelBkg" style="display: table-cell; white-space: nowrap; line-height: 1.5; max-width: 200px; text-align: center;"><span class="edgeLabel"><p>compile()</p></span></div></foreignObject></g></g></g><g class="nodes"><g class="node default" id="my-svg-classId-Runnable-0" data-look="classic" transform="translate(138.30078125, 119)"><g class="basic label-container outer-path"><path d="M-70.69140625 -111 L70.69140625 -111 L70.69140625 111 L-70.69140625 111" stroke="none" stroke-width="0" fill="#ECECFF" style=""/><path d="M-70.69140625 -111 C-36.87254351874761 -111, -3.0536807874952245 -111, 70.69140625 -111 M-70.69140625 -111 C-31.92548011776165 -111, 6.840446014476697 -111, 70.69140625 -111 M70.69140625 -111 C70.69140625 -63.820443055024334, 70.69140625 -16.64088611004867, 70.69140625 111 M70.69140625 -111 C70.69140625 -57.04413204918359, 70.69140625 -3.0882640983671763, 70.69140625 111 M70.69140625 111 C27.40376734615215 111, -15.883871557695699 111, -70.69140625 111 M70.69140625 111 C15.741144498754366 111, -39.20911725249127 111, -70.69140625 111 M-70.69140625 111 C-70.69140625 30.511413289537302, -70.69140625 -49.977173420925396, -70.69140625 -111 M-70.69140625 111 C-70.69140625 28.292474166143634, -70.69140625 -54.41505166771273, -70.69140625 -111" stroke="#9370DB" stroke-width="1.3" fill="none" stroke-dasharray="0 0" style=""/></g><g class="annotation-group text" transform="translate(-39.5859375, -87)"><g class="label" style="" transform="translate(0,-12)"><foreignObject width="79.171875" height="24"><div xmlns="http://www.w3.org/1999/xhtml" style="display: table-cell; white-space: nowrap; line-height: 1.5; max-width: 122px; text-align: center;"><span class="nodeLabel markdown-node-label" style=""><p>«interface»</p></span></div></foreignObject></g></g><g class="label-group text" transform="translate(-36.4453125, -63)"><g class="label" style="font-weight: bolder" transform="translate(0,-12)"><foreignObject width="72.890625" height="24"><div xmlns="http://www.w3.org/1999/xhtml" style="display: table-cell; white-space: nowrap; line-height: 1.5; max-width: 112px; text-align: center;"><span class="nodeLabel markdown-node-label" style=""><p>Runnable</p></span></div></foreignObject></g></g><g class="members-group text" transform="translate(-58.69140625, -15)"/><g class="methods-group text" transform="translate(-58.69140625, 15)"><g class="label" style="" transform="translate(0,-12)"><foreignObject width="66.25" height="24"><div xmlns="http://www.w3.org/1999/xhtml" style="display: table-cell; white-space: nowrap; line-height: 1.5; max-width: 119px; text-align: center;"><span class="nodeLabel markdown-node-label" style=""><p>+invoke()</p></span></div></foreignObject></g><g class="label" style="" transform="translate(0,12)"><foreignObject width="68.90625" height="24"><div xmlns="http://www.w3.org/1999/xhtml" style="display: table-cell; white-space: nowrap; line-height: 1.5; max-width: 118px; text-align: center;"><span class="nodeLabel markdown-node-label" style=""><p>+stream()</p></span></div></foreignObject></g><g class="label" style="" transform="translate(0,36)"><foreignObject width="75.15625" height="24"><div xmlns="http://www.w3.org/1999/xhtml" style="display: table-cell; white-space: nowrap; line-height: 1.5; max-width: 126px; text-align: center;"><span class="nodeLabel markdown-node-label" style=""><p>+ainvoke()</p></span></div></foreignObject></g><g class="label" style="" transform="translate(0,60)"><foreignObject width="77.796875" height="24"><div xmlns="http://www.w3.org/1999/xhtml" style="display: table-cell; white-space: nowrap; line-height: 1.5; max-width: 125px; text-align: center;"><span class="nodeLabel markdown-node-label" style=""><p>+astream()</p></span></div></foreignObject></g></g><g class="divider" style=""><path d="M-70.69140625 -39 C-22.480465019603265 -38.99965900422846, 25.73047621079347 -38.99931800845693, 70.69140625 -38.999 M-70.69140625 -39 C-28.563505552508005 -38.999702029546924, 13.56439514498399 -38.999404059093855, 70.69140625 -38.999" stroke="#9370DB" stroke-width="1.3" fill="none" stroke-dasharray="0 0" style=""/></g><g class="divider" style=""><path d="M-70.69140625 -15 C-25.918645686033635 -14.999683322464929, 18.85411487793273 -14.999366644929857, 70.69140625 -14.999 M-70.69140625 -15 C-25.891882475793317 -14.999683133168862, 18.907641298413367 -14.999366266337725, 70.69140625 -14.999" stroke="#9370DB" stroke-width="1.3" fill="none" stroke-dasharray="0 0" style=""/></g></g><g class="node default" id="my-svg-classId-Graph-1" data-look="classic" transform="translate(438.19140625, 422)"><g class="basic label-container outer-path"><path d="M-116.078125 -132 L116.078125 -132 L116.078125 132 L-116.078125 132" stroke="none" stroke-width="0" fill="#ECECFF" style=""/><path d="M-116.078125 -132 C-33.98126672793015 -132, 48.115591544139704 -132, 116.078125 -132 M-116.078125 -132 C-56.59938167153666 -132, 2.879361656926676 -132, 116.078125 -132 M116.078125 -132 C116.078125 -60.535338658743655, 116.078125 10.92932268251269, 116.078125 132 M116.078125 -132 C116.078125 -31.214129811840905, 116.078125 69.57174037631819, 116.078125 132 M116.078125 132 C52.85165705898826 132, -10.374810882023482 132, -116.078125 132 M116.078125 132 C50.947528820870374 132, -14.183067358259251 132, -116.078125 132 M-116.078125 132 C-116.078125 77.60992769362431, -116.078125 23.219855387248643, -116.078125 -132 M-116.078125 132 C-116.078125 67.81385231788465, -116.078125 3.6277046357693052, -116.078125 -132" stroke="#9370DB" stroke-width="1.3" fill="none" stroke-dasharray="0 0" style=""/></g><g class="annotation-group text" transform="translate(0, -108)"/><g class="label-group text" transform="translate(-23.5625, -108)"><g class="label" style="font-weight: bolder" transform="translate(0,-12)"><foreignObject width="47.125" height="24"><div xmlns="http://www.w3.org/1999/xhtml" style="display: table-cell; white-space: nowrap; line-height: 1.5; max-width: 91px; text-align: center;"><span class="nodeLabel markdown-node-label" style=""><p>Graph</p></span></div></foreignObject></g></g><g class="members-group text" transform="translate(-104.078125, -60)"><g class="label" style="" transform="translate(0,-12)"><foreignObject width="86.734375" height="24"><div xmlns="http://www.w3.org/1999/xhtml" style="display: table-cell; white-space: nowrap; line-height: 1.5; max-width: 135px; text-align: center;"><span class="nodeLabel markdown-node-label" style=""><p>+nodes: dict</p></span></div></foreignObject></g><g class="label" style="" transform="translate(0,12)"><foreignObject width="83.171875" height="24"><div xmlns="http://www.w3.org/1999/xhtml" style="display: table-cell; white-space: nowrap; line-height: 1.5; max-width: 128px; text-align: center;"><span class="nodeLabel markdown-node-label" style=""><p>+edges: set</p></span></div></foreignObject></g><g class="label" style="" transform="translate(0,36)"><foreignObject width="108.953125" height="24"><div xmlns="http://www.w3.org/1999/xhtml" style="display: table-cell; white-space: nowrap; line-height: 1.5; max-width: 154px; text-align: center;"><span class="nodeLabel markdown-node-label" style=""><p>+branches: dict</p></span></div></foreignObject></g></g><g class="methods-group text" transform="translate(-104.078125, 36)"><g class="label" style="" transform="translate(0,-12)"><foreignObject width="91.1875" height="24"><div xmlns="http://www.w3.org/1999/xhtml" style="display: table-cell; white-space: nowrap; line-height: 1.5; max-width: 137px; text-align: center;"><span class="nodeLabel markdown-node-label" style=""><p>+add_node()</p></span></div></foreignObject></g><g class="label" style="" transform="translate(0,12)"><foreignObject width="91.1875" height="24"><div xmlns="http://www.w3.org/1999/xhtml" style="display: table-cell; white-space: nowrap; line-height: 1.5; max-width: 136px; text-align: center;"><span class="nodeLabel markdown-node-label" style=""><p>+add_edge()</p></span></div></foreignObject></g><g class="label" style="" transform="translate(0,36)"><foreignObject width="184.59375" height="24"><div xmlns="http://www.w3.org/1999/xhtml" style="display: table-cell; white-space: nowrap; line-height: 1.5; max-width: 223px; text-align: center;"><span class="nodeLabel markdown-node-label" style=""><p>+add_conditional_edges()</p></span></div></foreignObject></g><g class="label" style="" transform="translate(0,60)"><foreignObject width="75.140625" height="24"><div xmlns="http://www.w3.org/1999/xhtml" style="display: table-cell; white-space: nowrap; line-height: 1.5; max-width: 127px; text-align: center;"><span class="nodeLabel markdown-node-label" style=""><p>+compile()</p></span></div></foreignObject></g></g><g class="divider" style=""><path d="M-116.078125 -84 C-66.60116348593104 -83.99978688076882, -17.124201971862078 -83.99957376153763, 116.078125 -83.999 M-116.078125 -84 C-58.12749322120699 -83.99975038091036, -0.17686144241397983 -83.99950076182073, 116.078125 -83.999" stroke="#9370DB" stroke-width="1.3" fill="none" stroke-dasharray="0 0" style=""/></g><g class="divider" style=""><path d="M-116.078125 12 C-58.554725157689724 12.000247778812081, -1.0313253153794477 12.000495557624163, 116.078125 12.001 M-116.078125 12 C-68.8721263841396 12.000203337186123, -21.66612776827921 12.000406674372245, 116.078125 12.001" stroke="#9370DB" stroke-width="1.3" fill="none" stroke-dasharray="0 0" style=""/></g></g><g class="node default" id="my-svg-classId-StateGraph-2" data-look="classic" transform="translate(438.19140625, 734)"><g class="basic label-container outer-path"><path d="M-147.1953125 -120 L147.1953125 -120 L147.1953125 120 L-147.1953125 120" stroke="none" stroke-width="0" fill="#ECECFF" style=""/><path d="M-147.1953125 -120 C-55.7794144614608 -120, 35.636483577078394 -120, 147.1953125 -120 M-147.1953125 -120 C-54.02405555230308 -120, 39.147201395393836 -120, 147.1953125 -120 M147.1953125 -120 C147.1953125 -56.69932862884251, 147.1953125 6.6013427423149835, 147.1953125 120 M147.1953125 -120 C147.1953125 -53.16680271200764, 147.1953125 13.666394575984725, 147.1953125 120 M147.1953125 120 C77.8974196855609 120, 8.59952687112181 120, -147.1953125 120 M147.1953125 120 C84.41298789896322 120, 21.63066329792646 120, -147.1953125 120 M-147.1953125 120 C-147.1953125 29.971355336589397, -147.1953125 -60.057289326821206, -147.1953125 -120 M-147.1953125 120 C-147.1953125 69.37114746933587, -147.1953125 18.742294938671733, -147.1953125 -120" stroke="#9370DB" stroke-width="1.3" fill="none" stroke-dasharray="0 0" style=""/></g><g class="annotation-group text" transform="translate(0, -96)"/><g class="label-group text" transform="translate(-43.125, -96)"><g class="label" style="font-weight: bolder" transform="translate(0,-12)"><foreignObject width="86.25" height="24"><div xmlns="http://www.w3.org/1999/xhtml" style="display: table-cell; white-space: nowrap; line-height: 1.5; max-width: 123px; text-align: center;"><span class="nodeLabel markdown-node-label" style=""><p>StateGraph</p></span></div></foreignObject></g></g><g class="members-group text" transform="translate(-135.1953125, -48)"><g class="label" style="" transform="translate(0,-12)"><foreignObject width="104.5" height="24"><div xmlns="http://www.w3.org/1999/xhtml" style="display: table-cell; white-space: nowrap; line-height: 1.5; max-width: 148px; text-align: center;"><span class="nodeLabel markdown-node-label" style=""><p>+schema: type</p></span></div></foreignObject></g><g class="label" style="" transform="translate(0,12)"><foreignObject width="212.140625" height="24"><div xmlns="http://www.w3.org/1999/xhtml" style="display: table-cell; white-space: nowrap; line-height: 1.5; max-width: 248px; text-align: center;"><span class="nodeLabel markdown-node-label" style=""><p>+channels: dict[BaseChannel]</p></span></div></foreignObject></g><g class="label" style="" transform="translate(0,36)"><foreignObject width="225.203125" height="24"><div xmlns="http://www.w3.org/1999/xhtml" style="display: table-cell; white-space: nowrap; line-height: 1.5; max-width: 261px; text-align: center;"><span class="nodeLabel markdown-node-label" style=""><p>+managed: dict[ManagedValue]</p></span></div></foreignObject></g><g class="label" style="" transform="translate(0,60)"><foreignObject width="227.265625" height="24"><div xmlns="http://www.w3.org/1999/xhtml" style="display: table-cell; white-space: nowrap; line-height: 1.5; max-width: 259px; text-align: center;"><span class="nodeLabel markdown-node-label" style=""><p>+input_schema, output_schema</p></span></div></foreignObject></g><g class="label" style="" transform="translate(0,84)"><foreignObject width="141.875" height="24"><div xmlns="http://www.w3.org/1999/xhtml" style="display: table-cell; white-space: nowrap; line-height: 1.5; max-width: 184px; text-align: center;"><span class="nodeLabel markdown-node-label" style=""><p>+waiting_edges: set</p></span></div></foreignObject></g></g><g class="methods-group text" transform="translate(-135.1953125, 96)"><g class="label" style="" transform="translate(0,-12)"><foreignObject width="75.140625" height="24"><div xmlns="http://www.w3.org/1999/xhtml" style="display: table-cell; white-space: nowrap; line-height: 1.5; max-width: 127px; text-align: center;"><span class="nodeLabel markdown-node-label" style=""><p>+compile()</p></span></div></foreignObject></g></g><g class="divider" style=""><path d="M-147.1953125 -72 C-34.07998089867499 -71.99961576449114, 79.03535070265002 -71.99923152898226, 147.1953125 -71.999 M-147.1953125 -72 C-50.444590830845186 -71.99967135257222, 46.30613083830963 -71.99934270514443, 147.1953125 -71.999" stroke="#9370DB" stroke-width="1.3" fill="none" stroke-dasharray="0 0" style=""/></g><g class="divider" style=""><path d="M-147.1953125 72 C-43.317071132605065 72.00035285852384, 60.56117023478987 72.00070571704767, 147.1953125 72.001 M-147.1953125 72 C-32.87040133412762 72.00038834426594, 81.45450983174476 72.00077668853189, 147.1953125 72.001" stroke="#9370DB" stroke-width="1.3" fill="none" stroke-dasharray="0 0" style=""/></g></g><g class="node default" id="my-svg-classId-Pregel-3" data-look="classic" transform="translate(138.30078125, 422)"><g class="basic label-container outer-path"><path d="M-130.30078125 -96 L130.30078125 -96 L130.30078125 96 L-130.30078125 96" stroke="none" stroke-width="0" fill="#ECECFF" style=""/><path d="M-130.30078125 -96 C-76.39890656572999 -96, -22.49703188145996 -96, 130.30078125 -96 M-130.30078125 -96 C-47.4453262439 -96, 35.4101287622 -96, 130.30078125 -96 M130.30078125 -96 C130.30078125 -47.11147141732246, 130.30078125 1.7770571653550746, 130.30078125 96 M130.30078125 -96 C130.30078125 -44.156576035536716, 130.30078125 7.686847928926568, 130.30078125 96 M130.30078125 96 C42.84331944846345 96, -44.614142353073106 96, -130.30078125 96 M130.30078125 96 C54.626409707184195 96, -21.04796183563161 96, -130.30078125 96 M-130.30078125 96 C-130.30078125 49.206347905462614, -130.30078125 2.4126958109252286, -130.30078125 -96 M-130.30078125 96 C-130.30078125 21.773672079428792, -130.30078125 -52.452655841142416, -130.30078125 -96" stroke="#9370DB" stroke-width="1.3" fill="none" stroke-dasharray="0 0" style=""/></g><g class="annotation-group text" transform="translate(0, -72)"/><g class="label-group text" transform="translate(-24.4609375, -72)"><g class="label" style="font-weight: bolder" transform="translate(0,-12)"><foreignObject width="48.921875" height="24"><div xmlns="http://www.w3.org/1999/xhtml" style="display: table-cell; white-space: nowrap; line-height: 1.5; max-width: 92px; text-align: center;"><span class="nodeLabel markdown-node-label" style=""><p>Pregel</p></span></div></foreignObject></g></g><g class="members-group text" transform="translate(-118.30078125, -24)"><g class="label" style="" transform="translate(0,-12)"><foreignObject width="180.125" height="24"><div xmlns="http://www.w3.org/1999/xhtml" style="display: table-cell; white-space: nowrap; line-height: 1.5; max-width: 220px; text-align: center;"><span class="nodeLabel markdown-node-label" style=""><p>+nodes: dict[PregelNode]</p></span></div></foreignObject></g><g class="label" style="" transform="translate(0,12)"><foreignObject width="212.140625" height="24"><div xmlns="http://www.w3.org/1999/xhtml" style="display: table-cell; white-space: nowrap; line-height: 1.5; max-width: 248px; text-align: center;"><span class="nodeLabel markdown-node-label" style=""><p>+channels: dict[BaseChannel]</p></span></div></foreignObject></g><g class="label" style="" transform="translate(0,36)"><foreignObject width="100.0625" height="24"><div xmlns="http://www.w3.org/1999/xhtml" style="display: table-cell; white-space: nowrap; line-height: 1.5; max-width: 148px; text-align: center;"><span class="nodeLabel markdown-node-label" style=""><p>+checkpointer</p></span></div></foreignObject></g></g><g class="methods-group text" transform="translate(-118.30078125, 72)"><g class="label" style="" transform="translate(0,-12)"><foreignObject width="139.140625" height="24"><div xmlns="http://www.w3.org/1999/xhtml" style="display: table-cell; white-space: nowrap; line-height: 1.5; max-width: 184px; text-align: center;"><span class="nodeLabel markdown-node-label" style=""><p>+invoke() / stream()</p></span></div></foreignObject></g></g><g class="divider" style=""><path d="M-130.30078125 -48 C-72.08523746197267 -47.999776610918104, -13.86969367394535 -47.99955322183621, 130.30078125 -47.999 M-130.30078125 -48 C-67.11932162201586 -47.999757555330746, -3.9378619940317208 -47.99951511066149, 130.30078125 -47.999" stroke="#9370DB" stroke-width="1.3" fill="none" stroke-dasharray="0 0" style=""/></g><g class="divider" style=""><path d="M-130.30078125 48 C-50.013354761787184 48.00030808497738, 30.274071726425632 48.00061616995476, 130.30078125 48.001 M-130.30078125 48 C-44.97016738102859 48.00032743707693, 40.36044648794282 48.00065487415386, 130.30078125 48.001" stroke="#9370DB" stroke-width="1.3" fill="none" stroke-dasharray="0 0" style=""/></g></g><g class="node default" id="my-svg-classId-CompiledGraph-4" data-look="classic" transform="translate(138.30078125, 734)"><g class="basic label-container outer-path"><path d="M-102.70703125 -96 L102.70703125 -96 L102.70703125 96 L-102.70703125 96" stroke="none" stroke-width="0" fill="#ECECFF" style=""/><path d="M-102.70703125 -96 C-47.77915679462654 -96, 7.148717660746925 -96, 102.70703125 -96 M-102.70703125 -96 C-33.8944396307198 -96, 34.918151988560396 -96, 102.70703125 -96 M102.70703125 -96 C102.70703125 -26.903839549126417, 102.70703125 42.192320901747166, 102.70703125 96 M102.70703125 -96 C102.70703125 -41.07651860254619, 102.70703125 13.846962794907625, 102.70703125 96 M102.70703125 96 C47.780090946689874 96, -7.146849356620251 96, -102.70703125 96 M102.70703125 96 C26.517444568487832 96, -49.672142113024336 96, -102.70703125 96 M-102.70703125 96 C-102.70703125 35.518087175350615, -102.70703125 -24.96382564929877, -102.70703125 -96 M-102.70703125 96 C-102.70703125 25.82924770860663, -102.70703125 -44.34150458278674, -102.70703125 -96" stroke="#9370DB" stroke-width="1.3" fill="none" stroke-dasharray="0 0" style=""/></g><g class="annotation-group text" transform="translate(0, -72)"/><g class="label-group text" transform="translate(-60.0078125, -72)"><g class="label" style="font-weight: bolder" transform="translate(0,-12)"><foreignObject width="120.015625" height="24"><div xmlns="http://www.w3.org/1999/xhtml" style="display: table-cell; white-space: nowrap; line-height: 1.5; max-width: 154px; text-align: center;"><span class="nodeLabel markdown-node-label" style=""><p>CompiledGraph</p></span></div></foreignObject></g></g><g class="members-group text" transform="translate(-90.70703125, -24)"><g class="label" style="" transform="translate(0,-12)"><foreignObject width="110.734375" height="24"><div xmlns="http://www.w3.org/1999/xhtml" style="display: table-cell; white-space: nowrap; line-height: 1.5; max-width: 159px; text-align: center;"><span class="nodeLabel markdown-node-label" style=""><p>+builder: Graph</p></span></div></foreignObject></g></g><g class="methods-group text" transform="translate(-90.70703125, 24)"><g class="label" style="" transform="translate(0,-12)"><foreignObject width="108.078125" height="24"><div xmlns="http://www.w3.org/1999/xhtml" style="display: table-cell; white-space: nowrap; line-height: 1.5; max-width: 152px; text-align: center;"><span class="nodeLabel markdown-node-label" style=""><p>+attach_node()</p></span></div></foreignObject></g><g class="label" style="" transform="translate(0,12)"><foreignObject width="108.078125" height="24"><div xmlns="http://www.w3.org/1999/xhtml" style="display: table-cell; white-space: nowrap; line-height: 1.5; max-width: 152px; text-align: center;"><span class="nodeLabel markdown-node-label" style=""><p>+attach_edge()</p></span></div></foreignObject></g><g class="label" style="" transform="translate(0,36)"><foreignObject width="121.40625" height="24"><div xmlns="http://www.w3.org/1999/xhtml" style="display: table-cell; white-space: nowrap; line-height: 1.5; max-width: 165px; text-align: center;"><span class="nodeLabel markdown-node-label" style=""><p>+attach_branch()</p></span></div></foreignObject></g></g><g class="divider" style=""><path d="M-102.70703125 -48 C-31.983765039545133 -47.999655703872705, 38.73950117090973 -47.99931140774542, 102.70703125 -47.999 M-102.70703125 -48 C-51.07998697946244 -47.999748668403505, 0.5470572910751201 -47.99949733680701, 102.70703125 -47.999" stroke="#9370DB" stroke-width="1.3" fill="none" stroke-dasharray="0 0" style=""/></g><g class="divider" style=""><path d="M-102.70703125 0 C-34.02735468968477 0.00033434749171720035, 34.65232187063046 0.0006686949834344007, 102.70703125 0.001 M-102.70703125 0 C-57.977243351282254 0.00021775426353158145, -13.247455452564509 0.0004355085270631629, 102.70703125 0.001" stroke="#9370DB" stroke-width="1.3" fill="none" stroke-dasharray="0 0" style=""/></g></g><g class="node default" id="my-svg-classId-CompiledStateGraph-5" data-look="classic" transform="translate(164.75, 1037)"><g class="basic label-container outer-path"><path d="M-122.71484375 -99 L122.71484375 -99 L122.71484375 99 L-122.71484375 99" stroke="none" stroke-width="0" fill="#ECECFF" style=""/><path d="M-122.71484375 -99 C-32.100983709388714 -99, 58.51287633122257 -99, 122.71484375 -99 M-122.71484375 -99 C-29.05604704095603 -99, 64.60274966808794 -99, 122.71484375 -99 M122.71484375 -99 C122.71484375 -19.92004648011053, 122.71484375 59.15990703977894, 122.71484375 99 M122.71484375 -99 C122.71484375 -51.6805380171382, 122.71484375 -4.361076034276394, 122.71484375 99 M122.71484375 99 C73.07808659634178 99, 23.441329442683553 99, -122.71484375 99 M122.71484375 99 C67.48653550166057 99, 12.258227253321152 99, -122.71484375 99 M-122.71484375 99 C-122.71484375 43.66315593515557, -122.71484375 -11.673688129688855, -122.71484375 -99 M-122.71484375 99 C-122.71484375 50.043091403276435, -122.71484375 1.0861828065528698, -122.71484375 -99" stroke="#9370DB" stroke-width="1.3" fill="none" stroke-dasharray="0 0" style=""/></g><g class="annotation-group text" transform="translate(0, -75)"/><g class="label-group text" transform="translate(-79.5703125, -75)"><g class="label" style="font-weight: bolder" transform="translate(0,-12)"><foreignObject width="159.140625" height="24"><div xmlns="http://www.w3.org/1999/xhtml" style="display: table-cell; white-space: nowrap; line-height: 1.5; max-width: 186px; text-align: center;"><span class="nodeLabel markdown-node-label" style=""><p>CompiledStateGraph</p></span></div></foreignObject></g></g><g class="members-group text" transform="translate(-110.71484375, -27)"/><g class="methods-group text" transform="translate(-110.71484375, 3)"><g class="label" style="" transform="translate(0,-12)"><foreignObject width="85.828125" height="24"><div xmlns="http://www.w3.org/1999/xhtml" style="display: table-cell; white-space: nowrap; line-height: 1.5; max-width: 132px; text-align: center;"><span class="nodeLabel markdown-node-label" style=""><p>+get_state()</p></span></div></foreignObject></g><g class="label" style="" transform="translate(0,12)"><foreignObject width="112.53125" height="24"><div xmlns="http://www.w3.org/1999/xhtml" style="display: table-cell; white-space: nowrap; line-height: 1.5; max-width: 155px; text-align: center;"><span class="nodeLabel markdown-node-label" style=""><p>+update_state()</p></span></div></foreignObject></g><g class="label" style="" transform="translate(0,36)"><foreignObject width="141.859375" height="24"><div xmlns="http://www.w3.org/1999/xhtml" style="display: table-cell; white-space: nowrap; line-height: 1.5; max-width: 184px; text-align: center;"><span class="nodeLabel markdown-node-label" style=""><p>+get_state_history()</p></span></div></foreignObject></g><g class="label" style="" transform="translate(0,60)"><foreignObject width="92.0625" height="24"><div xmlns="http://www.w3.org/1999/xhtml" style="display: table-cell; white-space: nowrap; line-height: 1.5; max-width: 139px; text-align: center;"><span class="nodeLabel markdown-node-label" style=""><p>+get_graph()</p></span></div></foreignObject></g></g><g class="divider" style=""><path d="M-122.71484375 -51 C-48.16991808790546 -50.99969626769108, 26.375007574189084 -50.99939253538216, 122.71484375 -50.999 M-122.71484375 -51 C-65.67702563409193 -50.99976760016811, -8.63920751818388 -50.99953520033622, 122.71484375 -50.999" stroke="#9370DB" stroke-width="1.3" fill="none" stroke-dasharray="0 0" style=""/></g><g class="divider" style=""><path d="M-122.71484375 -27 C-64.20255194917624 -26.999761592444674, -5.690260148352465 -26.99952318488935, 122.71484375 -26.999 M-122.71484375 -27 C-31.914790732584123 -26.9996300363907, 58.885262284831754 -26.999260072781393, 122.71484375 -26.999" stroke="#9370DB" stroke-width="1.3" fill="none" stroke-dasharray="0 0" style=""/></g></g><g class="node default" id="my-svg-classId-MessageGraph-6" data-look="classic" transform="translate(464.640625, 1037)"><g class="basic label-container outer-path"><path d="M-94.265625 -54 L94.265625 -54 L94.265625 54 L-94.265625 54" stroke="none" stroke-width="0" fill="#ECECFF" style=""/><path d="M-94.265625 -54 C-28.76105442198019 -54, 36.74351615603962 -54, 94.265625 -54 M-94.265625 -54 C-28.03487331487642 -54, 38.19587837024716 -54, 94.265625 -54 M94.265625 -54 C94.265625 -26.000205372881258, 94.265625 1.9995892542374847, 94.265625 54 M94.265625 -54 C94.265625 -30.067443221369068, 94.265625 -6.134886442738136, 94.265625 54 M94.265625 54 C19.108744012570682 54, -56.048136974858636 54, -94.265625 54 M94.265625 54 C52.56557033742998 54, 10.865515674859964 54, -94.265625 54 M-94.265625 54 C-94.265625 20.715985497850944, -94.265625 -12.568029004298111, -94.265625 -54 M-94.265625 54 C-94.265625 29.645386021779974, -94.265625 5.290772043559947, -94.265625 -54" stroke="#9370DB" stroke-width="1.3" fill="none" stroke-dasharray="0 0" style=""/></g><g class="annotation-group text" transform="translate(-82.265625, -30)"><g class="label" style="" transform="translate(0,-12)"><foreignObject width="164.53125" height="24"><div xmlns="http://www.w3.org/1999/xhtml" style="display: table-cell; white-space: nowrap; line-height: 1.5; max-width: 196px; text-align: center;"><span class="nodeLabel markdown-node-label" style=""><p>«MessagesState 预设»</p></span></div></foreignObject></g></g><g class="label-group text" transform="translate(-57.359375, -6)"><g class="label" style="font-weight: bolder" transform="translate(0,-12)"><foreignObject width="114.71875" height="24"><div xmlns="http://www.w3.org/1999/xhtml" style="display: table-cell; white-space: nowrap; line-height: 1.5; max-width: 148px; text-align: center;"><span class="nodeLabel markdown-node-label" style=""><p>MessageGraph</p></span></div></foreignObject></g></g><g class="members-group text" transform="translate(-82.265625, 42)"/><g class="methods-group text" transform="translate(-82.265625, 72)"/><g class="divider" style=""><path d="M-94.265625 18 C-48.785976393241945 18.00024123135346, -3.306327786483891 18.000482462706916, 94.265625 18.001 M-94.265625 18 C-55.23769156267517 18.00020701042102, -16.209758125350334 18.000414020842033, 94.265625 18.001" stroke="#9370DB" stroke-width="1.3" fill="none" stroke-dasharray="0 0" style=""/></g><g class="divider" style=""><path d="M-94.265625 36 C-53.80319748492225 36.00021461920777, -13.340769969844501 36.00042923841554, 94.265625 36.001 M-94.265625 36 C-44.38475951765211 36.00026457611394, 5.496105964695786 36.00052915222789, 94.265625 36.001" stroke="#9370DB" stroke-width="1.3" fill="none" stroke-dasharray="0 0" style=""/></g></g></g></g></g><defs><filter id="my-svg-drop-shadow" height="130%" width="130%"><feDropShadow dx="4" dy="4" stdDeviation="0" flood-opacity="0.06" flood-color="#000000"/></filter></defs><defs><filter id="my-svg-drop-shadow-small" height="150%" width="150%"><feDropShadow dx="2" dy="2" stdDeviation="0" flood-opacity="0.06" flood-color="#000000"/></filter></defs></svg>